<?xml version="1.0" encoding="utf-8"?>
<!-- Generator: Adobe Illustrator 19.0.0, SVG Export Plug-In . SVG Version: 6.00 Build 0)  -->
<svg version="1.1" id="Layer_1" xmlns="http://www.w3.org/2000/svg" xmlns:xlink="http://www.w3.org/1999/xlink" x="0px" y="0px"
	 viewBox="51.2 342.3 468.3 156.4" style="enable-background:new 51.2 342.3 468.3 156.4;" xml:space="preserve">
<style type="text/css">
	.st0{fill:#FCFCFC;}
</style>
<g id="XMLID_52_">
	<g id="XMLID_54_">
		<g id="XMLID_64_">
			<path id="XMLID_73_" class="st0" d="M282.8,406.6c0,7.9-2.5,14.7-7.6,20.6c-5,5.8-11.3,9-18.7,9.9l26.3,30.8h-15.3l-29.1-35
				c-0.8-0.5-1.7-1.1-2.5-1.7v36.7h-11.7V376h29.3c8.1,0,15,3,20.7,8.9C279.9,391,282.8,398.2,282.8,406.6 M235.8,406.6
				c0,5.1,1.7,9.4,5.2,13c3.4,3.6,7.6,5.3,12.4,5.3c4.9,0,9-1.8,12.4-5.3c3.4-3.6,5.1-7.9,5.1-13s-1.7-9.4-5.1-13s-7.6-5.4-12.4-5.4
				h-17.6L235.8,406.6L235.8,406.6z"/>
			<path id="XMLID_70_" class="st0" d="M311.1,406.6c8.1,0,15,3,20.7,9c5.8,5.9,8.6,13.1,8.6,21.6v30.6h-29.3c-8.1,0-15-3-20.8-8.9
				c-5.7-6-8.5-13.2-8.5-21.7c0-8.4,2.8-15.6,8.5-21.6C296.1,409.6,303,406.6,311.1,406.6 M328.7,437.2c0-5.1-1.7-9.4-5.1-13
				s-7.6-5.3-12.4-5.3s-9,1.8-12.4,5.3c-3.5,3.6-5.2,7.9-5.2,13s1.7,9.4,5.2,13c3.4,3.6,7.6,5.4,12.4,5.4h17.5V437.2z"/>
			<path id="XMLID_67_" class="st0" d="M427.9,443.4h-10.7c1.2,3.6,3.3,6.5,6.3,8.7c3.1,2.3,6.5,3.5,10.3,3.5h29.3v12.2h-29.3
				c-8.1,0-15-3-20.8-8.9c-5.7-6-8.5-13.2-8.5-21.7c0-8.4,2.8-15.6,8.5-21.6c5.8-6,12.7-9,20.8-9c8.1,0,15,3,20.7,9
				c5.8,5.9,8.6,13.1,8.6,21.6v6.1L427.9,443.4L427.9,443.4z M433.8,418.9c-3.8,0-7.2,1.1-10.3,3.4c-3,2.3-5.1,5.2-6.3,8.8h33.1
				c-1.2-3.6-3.3-6.6-6.3-8.8C441,420,437.5,418.9,433.8,418.9"/>
			<polygon id="XMLID_66_" class="st0" points="365.1,498.7 350.8,498.7 364.8,470 336.8,406.6 350.8,406.6 372.1,454.8 
				394.9,406.6 409.3,406.6 			"/>
			<polygon id="XMLID_65_" class="st0" points="466.7,407 466.7,419.3 505.4,419.3 466.7,498.2 480.8,498.2 519.5,419.3 519.5,407 
							"/>
		</g>
		<g id="XMLID_55_">
			<circle id="XMLID_63_" class="st0" cx="117.7" cy="393.3" r="7.6"/>
			<path id="XMLID_62_" class="st0" d="M176.8,383.6c0,4.2-3.4,7.6-7.6,7.6c-4.2,0-7.6-3.4-7.6-7.6s3.4-7.6,7.6-7.6
				C173.3,376,176.8,379.4,176.8,383.6z"/>
			<path id="XMLID_59_" class="st0" d="M103.2,352.5c-28.7,0-52,23.3-52,52c0,14.9,6.3,28.3,16.3,37.8l35.7,35.7l35.7-35.7
				c10.1-9.5,16.3-22.9,16.3-37.8C155.2,375.7,131.9,352.5,103.2,352.5z M109.6,414.2c3,5,11.1,12.5,23,12.8c0.2,0,0.5,0,0.8,0
				c-6.8,9.2-17.7,15.1-30,15.1c-20.7,0-37.4-16.7-37.4-37.4c0-20.7,16.8-37.4,37.4-37.4c20.7,0,37.4,16.7,37.4,37.4
				c0,0.2,0,0.4,0,0.6C135.5,409.6,106.6,409.1,109.6,414.2z"/>
			<path id="XMLID_56_" class="st0" d="M154.5,342.3c-15.9,0-30.2,7.2-39.7,18.4c-7.7,9.1,27.5,15.1,27.5,27.9
				c0,14.9,3.7,26.6-1.5,39.7l-12.7,13l26.4,26.4l35.7-35.7c10.1-9.5,16.3-22.9,16.3-37.8C206.5,365.6,183.2,342.3,154.5,342.3z
				 M160.9,404c3,5,11.1,12.5,23,12.8c0.2,0,0.5,0,0.8,0c-6.8,9.1-17.7,15.1-30,15.1c-5.9,0-11.5-1.4-16.4-3.8
				c12.1-12.8,8.3-22,8.3-36.8c0-11.2-5.4-15.3-16.5-25c6.6-5.7,15.2-9.2,24.6-9.2c20.7,0,37.4,16.8,37.4,37.4c0,0.2,0,0.4,0,0.6
				C186.8,399.4,157.8,399,160.9,404z"/>
		</g>
	</g>
	<g id="XMLID_53_">
		<path id="XMLID_2_" class="st0" d="M300,391.3v-4.5h11.9c-0.1-1.6-0.2-2.9-0.5-4s-0.7-1.9-1.3-2.6c-0.7-0.8-1.7-1.4-3.1-1.8
			c-1.3-0.3-3-0.5-5-0.5h-0.5v-4.5h0.4c1.3,0,2.5,0.1,3.7,0.2s2.3,0.4,3.3,0.7c1,0.3,1.9,0.7,2.6,1.2c0.8,0.5,1.4,1.1,2,1.7
			c1,1.1,1.7,2.5,2.1,4s0.7,3.4,0.8,5.5h2.6v4.5L300,391.3z"/>
		<path id="XMLID_4_" class="st0" d="M318.7,391.3v-4.5h9.6v4.5H318.7z"/>
		<path id="XMLID_6_" class="st0" d="M330.4,373.5c0.7,0.1,1.5,0.1,2.4,0.1s1.8,0.1,2.7,0.1c0.9,0.1,1.8,0.2,2.8,0.4
			s1.8,0.4,2.7,0.8c0.9,0.4,1.7,0.8,2.4,1.5c0.8,0.6,1.4,1.4,2,2.3s1,2.1,1.4,3.4s0.6,2.9,0.6,4.7h1.9v4.5H328v-4.5h14.9
			c-0.1-1.7-0.4-3-0.9-4.1s-1.1-1.9-1.8-2.6c-0.7-0.6-1.6-1.1-2.5-1.4s-1.8-0.5-2.7-0.6c-0.9-0.1-1.7-0.1-2.5-0.1h-0.2
			c-0.1,0-0.3,0-0.4,0c-0.7,0-1.3,0-1.9-0.1L330.4,373.5z"/>
		<path id="XMLID_8_" class="st0" d="M358.3,391.3h-4.5V366h4.5V391.3z"/>
		<path id="XMLID_10_" class="st0" d="M374.8,391.4c-0.6,0.1-1.1,0.1-1.7,0.2c-0.6,0-1.1,0.1-1.7,0.1s-1.2,0-1.8-0.1
			c-0.6,0-1.1-0.1-1.7-0.2c-0.5-0.1-1.1-0.2-1.7-0.3s-1.1-0.2-1.6-0.4c-0.5-0.2-0.9-0.4-1.2-0.8c-0.3-0.3-0.5-0.8-0.5-1.4v-6.7
			c0-1.2,0.2-2.3,0.7-3.3c0.4-1,1-1.9,1.8-2.7c0.8-0.8,1.7-1.4,2.7-1.8s2.1-0.7,3.3-0.7h5.6c0.4,0,0.8,0.1,1.1,0.2
			c0.3,0.1,0.7,0.4,0.9,0.6c0.3,0.3,0.5,0.6,0.6,0.9s0.2,0.7,0.2,1.1c0,1.1,0,2.3,0.1,3.7c0.1,1.3,0.1,2.7,0.1,4.2
			c0,1.1,0,2.3-0.1,3.5s-0.2,2.4-0.5,3.5c-0.3,1.5-0.7,2.8-1.3,4.1c-0.6,1.3-1.3,2.4-2.3,3.3c-0.9,0.9-2.1,1.7-3.4,2.2
			c-1.4,0.5-3,0.8-4.8,0.8v-4.5c1.1,0,2.1-0.1,2.9-0.4s1.5-0.7,2-1.2s1-1.1,1.4-1.8C374.2,393,374.5,392.2,374.8,391.4z
			 M371.4,387.1c1.4,0,2.8-0.1,4.1-0.4c0-0.9,0.1-1.8,0.1-2.8s0-2.1-0.1-3.1s-0.1-2-0.1-2.9h-4c-0.5,0-1,0.1-1.5,0.3
			s-0.9,0.5-1.3,0.9s-0.6,0.8-0.8,1.3c-0.2,0.5-0.3,1-0.3,1.5v4.8c0.4,0.1,0.8,0.2,1.1,0.2c0.3,0,0.6,0.1,0.9,0.1s0.6,0,0.9,0h1
			L371.4,387.1L371.4,387.1z"/>
		<path id="XMLID_13_" class="st0" d="M403,391.3h-6.4c-0.3,0-0.6-0.1-0.9-0.2s-0.5-0.3-0.7-0.5s-0.4-0.4-0.5-0.7
			c-0.1-0.3-0.2-0.6-0.2-0.9c0-0.1,0-0.2,0-0.2V366h4.5v20.8h4.1v4.5H403z"/>
		<path id="XMLID_15_" class="st0" d="M402.4,391.3v-4.5h9.6v4.5H402.4z"/>
		<path id="XMLID_17_" class="st0" d="M415.8,386.8v-12.7h4.5v12.6h3.8v4.5l-12.6,0.1v-4.5H415.8z M415.7,368.5c0-0.3,0.1-0.7,0.2-1
			s0.3-0.6,0.5-0.8s0.5-0.4,0.8-0.5s0.6-0.2,0.9-0.2s0.7,0.1,1,0.2s0.6,0.3,0.8,0.5s0.4,0.5,0.5,0.8s0.2,0.6,0.2,1s-0.1,0.7-0.2,0.9
			s-0.3,0.5-0.5,0.8s-0.5,0.4-0.8,0.5s-0.6,0.2-1,0.2s-0.7-0.1-0.9-0.2c-0.3-0.1-0.5-0.3-0.8-0.5s-0.4-0.5-0.5-0.8
			S415.7,368.9,415.7,368.5z"/>
		<path id="XMLID_20_" class="st0" d="M423.9,391.3v-4.5h4c-0.3-0.7-0.6-1.4-0.7-2.1c-0.2-0.7-0.2-1.5-0.2-2.3
			c0-1.1,0.2-2.2,0.5-3.3c0.4-1.1,0.9-2,1.6-2.9c0.7-0.8,1.6-1.5,2.6-2s2.2-0.8,3.6-0.8h5.5c0.4,0,0.8,0.1,1.1,0.2
			c0.3,0.2,0.7,0.4,0.9,0.6s0.5,0.6,0.6,0.9c0.1,0.4,0.2,0.7,0.2,1.1v10.5h3.2v4.5L423.9,391.3L423.9,391.3z M430.7,368.6
			c0-0.3,0.1-0.7,0.2-1s0.3-0.6,0.5-0.8s0.5-0.4,0.8-0.5s0.6-0.2,0.9-0.2s0.7,0.1,1,0.2s0.6,0.3,0.8,0.5s0.4,0.5,0.5,0.8
			s0.2,0.6,0.2,1s-0.1,0.7-0.2,0.9c-0.1,0.3-0.3,0.5-0.5,0.8s-0.5,0.4-0.8,0.5s-0.6,0.2-1,0.2s-0.7-0.1-0.9-0.2s-0.5-0.3-0.8-0.5
			s-0.4-0.5-0.5-0.8C430.8,369.2,430.7,368.9,430.7,368.6z M431.8,384.4c0.3,0.7,0.7,1.3,1.2,1.8c0.6,0.5,1.3,0.7,2.2,0.7h3.9V378
			h-3.9c-0.7,0-1.2,0.1-1.7,0.4s-0.9,0.6-1.2,1c-0.3,0.4-0.5,0.9-0.7,1.4s-0.2,1.1-0.2,1.6c0,0.3,0,0.7,0.1,1
			C431.6,383.7,431.6,384,431.8,384.4z M436.3,368.6c0-0.3,0.1-0.7,0.2-1s0.3-0.6,0.5-0.8c0.2-0.2,0.5-0.4,0.8-0.5s0.6-0.2,0.9-0.2
			s0.7,0.1,1,0.2s0.6,0.3,0.8,0.5c0.2,0.2,0.4,0.5,0.5,0.8s0.2,0.6,0.2,1s-0.1,0.7-0.2,0.9c-0.1,0.3-0.3,0.5-0.5,0.8
			c-0.2,0.2-0.5,0.4-0.8,0.5s-0.6,0.2-1,0.2s-0.7-0.1-0.9-0.2s-0.5-0.3-0.8-0.5c-0.2-0.2-0.4-0.5-0.5-0.8S436.3,368.9,436.3,368.6z"
			/>
		<path id="XMLID_25_" class="st0" d="M446.4,391.3v-4.5h9.6v4.5H446.4z"/>
		<path id="XMLID_27_" class="st0" d="M455.5,386.8h7.6v-12.7h4.5v14.8c0,0.1,0,0.1,0,0.2c0,0.3-0.1,0.6-0.2,0.9s-0.3,0.5-0.5,0.7
			s-0.4,0.4-0.7,0.5c-0.3,0.1-0.6,0.2-0.9,0.2h-9.8V386.8z M455.9,397.1c0-0.3,0.1-0.7,0.2-1s0.3-0.6,0.5-0.8s0.5-0.4,0.8-0.5
			s0.6-0.2,0.9-0.2s0.7,0.1,1,0.2s0.6,0.3,0.8,0.5s0.4,0.5,0.5,0.8s0.2,0.6,0.2,1s-0.1,0.7-0.2,0.9c-0.1,0.3-0.3,0.5-0.5,0.8
			c-0.2,0.2-0.5,0.4-0.8,0.5s-0.6,0.2-1,0.2s-0.7-0.1-0.9-0.2c-0.3-0.1-0.6-0.3-0.8-0.5c-0.2-0.2-0.4-0.5-0.5-0.8
			S455.9,397.4,455.9,397.1z M461.6,397.1c0-0.3,0.1-0.7,0.2-1s0.3-0.6,0.5-0.8s0.5-0.4,0.8-0.5s0.6-0.2,0.9-0.2s0.7,0.1,1,0.2
			s0.6,0.3,0.8,0.5s0.4,0.5,0.5,0.8s0.2,0.6,0.2,1s-0.1,0.7-0.2,0.9c-0.1,0.3-0.3,0.5-0.5,0.8c-0.2,0.2-0.5,0.4-0.8,0.5
			s-0.6,0.2-1,0.2s-0.7-0.1-0.9-0.2c-0.3-0.1-0.5-0.3-0.8-0.5c-0.2-0.2-0.4-0.5-0.5-0.8C461.6,397.7,461.6,397.4,461.6,397.1z"/>
		<path id="XMLID_31_" class="st0" d="M481.4,376.3c0,1.1,0,2.3,0.1,3.7c0.1,1.3,0.1,2.7,0.1,4.2c0,0.9,0,1.8-0.1,2.6h3.1v4.5H481
			c-0.3,1.4-0.7,2.8-1.3,4.1s-1.3,2.4-2.2,3.3s-2.1,1.7-3.4,2.2s-2.9,0.8-4.8,0.8v-4.5c1.2,0,2.2-0.2,3.1-0.5
			c0.9-0.4,1.6-0.8,2.2-1.5c0.6-0.6,1-1.4,1.4-2.2s0.6-1.8,0.8-2.7c0.2-1,0.3-2,0.3-3c0.1-1.1,0.1-2.1,0.1-3.1c0-1.4,0-2.8-0.1-4.1
			c-0.1-1.3-0.1-2.5-0.1-3.6h4.4V376.3z"/>
		<path id="XMLID_33_" class="st0" d="M484.1,391.3v-4.5h9.6v4.5H484.1z"/>
		<path id="XMLID_35_" class="st0" d="M501.3,377.2c0.2-0.5,0.4-1,0.8-1.5s0.8-0.9,1.4-1.2c0.5-0.3,1.2-0.6,1.9-0.8
			c0.7-0.2,1.4-0.3,2.2-0.3l8.3,0.1c0.3,0,0.6,0.1,0.9,0.2c0.3,0.1,0.5,0.3,0.7,0.5s0.4,0.4,0.5,0.7s0.2,0.6,0.2,0.9V389
			c0,0.3-0.1,0.7-0.2,1s-0.3,0.6-0.5,0.8c-0.2,0.2-0.4,0.4-0.7,0.5s-0.6,0.2-0.9,0.2h-22.6V387h3.6v-21h4.5L501.3,377.2L501.3,377.2
			z M507.5,377.9c-0.8,0-1.5,0.1-2.3,0.3c-0.7,0.2-1.4,0.5-1.9,0.9c-0.6,0.4-1,0.9-1.4,1.5c-0.3,0.6-0.5,1.3-0.6,2.2v4.1h12.3V378
			c-2.1,0-3.6,0-4.6-0.1C508,377.9,507.5,377.9,507.5,377.9z"/>
	</g>
</g>
<g id="XMLID_1_">
</g>
<g id="XMLID_38_">
</g>
<g id="XMLID_39_">
</g>
<g id="XMLID_40_">
</g>
<g id="XMLID_41_">
</g>
<g id="XMLID_42_">
</g>
</svg>
